<?xml version="1.0" encoding="utf-8"?>
<!-- Generator: Adobe Illustrator 16.0.4, SVG Export Plug-In . SVG Version: 6.00 Build 0)  -->
<!DOCTYPE svg PUBLIC "-//W3C//DTD SVG 1.1//EN" "http://www.w3.org/Graphics/SVG/1.1/DTD/svg11.dtd">
<svg version="1.1" xmlns="http://www.w3.org/2000/svg" xmlns:xlink="http://www.w3.org/1999/xlink" x="0px" y="0px" width="500px"
	 height="160px" viewBox="0 0 500 160" enable-background="new 0 0 500 160" xml:space="preserve">
<g id="doogie">
</g>
<g id="glasses">
	<g>
		<path d="M64.263,14.285h28.072V76.66c0,11.46-3.002,20.792-9.007,27.998c-3.453,4.154-7.844,7.457-13.174,9.908
			c-5.329,2.451-10.797,3.678-16.4,3.678c-11.159,0-20.566-3.753-28.223-11.259c-7.656-7.507-11.484-16.713-11.484-27.623
			c0-10.558,3.802-19.69,11.409-27.396c7.605-7.706,16.613-11.56,27.021-11.56c1.651,0,4.153,0.15,7.507,0.45v30.925
			c-2.303-1.801-4.605-2.702-6.906-2.702c-2.902,0-5.393,1.063-7.469,3.19c-2.077,2.127-3.114,4.691-3.114,7.693
			c0,2.903,1.075,5.393,3.228,7.469c2.15,2.077,4.729,3.115,7.731,3.115c7.205,0,10.809-4.979,10.809-14.938V14.285z"/>
		<path d="M318.794,85.892v25.746c-4.054,1.501-7.932,2.252-11.635,2.252c-9.058,0-16.727-3.427-23.006-10.283
			c-6.28-6.855-9.42-15.237-9.42-25.146c0-10.708,3.777-19.741,11.334-27.097c7.555-7.356,16.838-11.034,27.848-11.034
			c5.854,0,11.458,1.177,16.813,3.527c5.354,2.354,9.558,5.506,12.61,9.458c5.104,6.557,7.656,16.063,7.656,28.523v24.62
			c0,13.36-3.791,24.207-11.372,32.539c-7.581,8.331-17.451,12.497-29.611,12.497c-3.704,0-8.383-0.927-14.036-2.777v-25.521
			c3.651,2.001,7.355,3.002,11.108,3.002c5.054,0,8.957-1.664,11.71-4.991c2.751-3.328,4.128-8.094,4.128-14.299V78.761
			c0-7.855-3.178-11.784-9.532-11.784c-2.702,0-5.067,1.039-7.094,3.115c-2.026,2.077-3.04,4.466-3.04,7.168
			c0,2.853,0.963,5.229,2.89,7.131c1.926,1.902,4.316,2.853,7.169,2.853C315.216,87.244,317.041,86.793,318.794,85.892z"/>
		<path d="M395.58,41.907v74.836h-28.072V41.907H395.58z M381.619,8.504c3.803,0,7.094,1.34,9.87,4.016
			c2.777,2.678,4.166,5.844,4.166,9.496c0,3.902-1.313,7.105-3.94,9.607c-2.627,2.503-5.993,3.753-10.096,3.753
			c-4.104,0-7.469-1.25-10.096-3.753c-2.627-2.502-3.94-5.705-3.94-9.607c0-3.652,1.389-6.818,4.166-9.496
			C374.526,9.844,377.815,8.504,381.619,8.504z"/>
		<path d="M485.653,83.866h-42.56c-0.65-2.151-0.976-4.128-0.976-5.93c0-2.502,0.45-4.954,1.351-7.356h14.262
			c-1.001-5.554-4.128-8.331-9.383-8.331c-3.503,0-6.355,1.489-8.557,4.466c-2.202,2.978-3.303,6.793-3.303,11.447
			c0,4.854,1.062,8.781,3.19,11.784c2.126,3.002,4.916,4.504,8.369,4.504c2.802,0,5.504-1.4,8.106-4.204l15.988,19.216
			c-7.457,5.854-15.738,8.782-24.846,8.782c-11.108,0-20.442-3.728-27.997-11.184c-7.557-7.456-11.334-16.688-11.334-27.698
			c0-10.959,3.814-20.216,11.446-27.772c7.631-7.555,17.001-11.334,28.11-11.334c10.858,0,19.978,3.691,27.359,11.071
			c7.381,7.382,11.071,16.477,11.071,27.285C485.953,79.712,485.853,81.463,485.653,83.866z"/>
		<path d="M86.79,61.223c0,0,19.019-9.391,44.384-8.992c25.365,0.399,29.037,5.327,49.883,3.412
			c20.846-1.915,14.893-7.668,45.988-12.891c31.095-5.223,47.964-2.733,47.964-2.733l53.101,14.993l-10.386,5.304l-43.707-10.675
			c0,0,0.673,34.128-7.485,45.93c-5.467,7.909-29.436,20.038-51.458,9.844S185.377,68.64,185.377,68.64l-6.983,0.522
			c0,0-5.211,34.073-17.877,42.543c-10.931,7.31-28.043,9.441-41.602,2.5c-13.558-6.941-21.494-37.454-24.475-42.72
			S86.272,78.561,86.79,61.223z"/>
	</g>
</g>
</svg>
