<svg xmlns="http://www.w3.org/2000/svg" width="500" height="160" viewBox="0 0 500 160"><g><path d="M64.263 14.285h28.072V76.66c0 11.46-3.002 20.792-9.007 27.998-3.453 4.154-7.844 7.457-13.174 9.908-5.33 2.45-10.797 3.678-16.4 3.678-11.16 0-20.566-3.753-28.223-11.26-7.655-7.506-11.483-16.712-11.483-27.622 0-10.558 3.802-19.69 11.41-27.396 7.604-7.706 16.612-11.56 27.02-11.56 1.65 0 4.153.15 7.507.45V71.78c-2.303-1.8-4.605-2.7-6.906-2.7-2.902 0-5.393 1.062-7.47 3.19-2.076 2.126-3.113 4.69-3.113 7.692 0 2.903 1.075 5.393 3.228 7.47 2.15 2.076 4.73 3.114 7.73 3.114 7.206 0 10.81-4.98 10.81-14.938V14.285zM318.794 85.892v25.746c-4.054 1.5-7.932 2.252-11.635 2.252-9.06 0-16.728-3.427-23.007-10.283-6.28-6.855-9.42-15.237-9.42-25.146 0-10.707 3.777-19.74 11.334-27.096 7.555-7.356 16.838-11.034 27.848-11.034 5.854 0 11.458 1.177 16.813 3.527 5.354 2.354 9.558 5.506 12.61 9.458 5.104 6.557 7.656 16.063 7.656 28.523v24.62c0 13.36-3.79 24.207-11.372 32.54-7.58 8.33-17.45 12.496-29.61 12.496-3.705 0-8.384-.927-14.037-2.777v-25.52c3.65 2 7.355 3 11.108 3 5.054 0 8.957-1.663 11.71-4.99 2.75-3.328 4.128-8.094 4.128-14.3V78.762c0-7.854-3.177-11.783-9.53-11.783-2.703 0-5.068 1.04-7.095 3.115-2.026 2.077-3.04 4.466-3.04 7.168 0 2.853.963 5.23 2.89 7.13 1.926 1.903 4.316 2.854 7.17 2.854 1.9 0 3.726-.45 5.48-1.352zM395.58 41.907v74.836h-28.072V41.907h28.072zM381.62 8.504c3.802 0 7.093 1.34 9.87 4.016 2.776 2.678 4.165 5.844 4.165 9.496 0 3.902-1.313 7.105-3.94 9.607-2.627 2.503-5.993 3.753-10.096 3.753-4.105 0-7.47-1.25-10.097-3.753-2.627-2.502-3.94-5.705-3.94-9.607 0-3.652 1.39-6.818 4.166-9.496 2.776-2.676 6.065-4.016 9.87-4.016zM485.653 83.866h-42.56c-.65-2.15-.976-4.128-.976-5.93 0-2.502.45-4.954 1.35-7.356h14.263c-1-5.554-4.128-8.33-9.383-8.33-3.503 0-6.355 1.488-8.557 4.465-2.202 2.978-3.303 6.793-3.303 11.447 0 4.854 1.062 8.78 3.19 11.784 2.126 3.002 4.916 4.504 8.37 4.504 2.8 0 5.503-1.4 8.105-4.204l15.988 19.216c-7.457 5.854-15.738 8.782-24.846 8.782-11.108 0-20.442-3.728-27.997-11.184-7.557-7.456-11.334-16.688-11.334-27.698 0-10.96 3.814-20.216 11.446-27.772 7.63-7.555 17-11.334 28.11-11.334 10.857 0 19.977 3.69 27.358 11.07 7.38 7.383 11.07 16.478 11.07 27.286.005 1.1-.095 2.85-.295 5.254zM86.79 61.223s19.02-9.39 44.384-8.992c25.365.4 29.037 5.328 49.883 3.413 20.846-1.915 14.893-7.668 45.988-12.89 31.095-5.224 47.964-2.734 47.964-2.734l53.1 14.992-10.386 5.304-43.707-10.675s.673 34.13-7.485 45.93c-5.467 7.91-29.436 20.04-51.458 9.845S185.377 68.64 185.377 68.64l-6.983.522s-5.21 34.073-17.877 42.543c-10.93 7.31-28.043 9.44-41.602 2.5-13.558-6.94-21.494-37.454-24.475-42.72s-8.168 7.076-7.65-10.262z"/></g></svg>